<?xml version="1.0" encoding="utf-8"?>
<!-- Generator: Adobe Illustrator 16.0.3, SVG Export Plug-In . SVG Version: 6.00 Build 0)  -->
<!DOCTYPE svg PUBLIC "-//W3C//DTD SVG 1.1//EN" "http://www.w3.org/Graphics/SVG/1.1/DTD/svg11.dtd">
<svg version="1.1" id="Capa_1" xmlns="http://www.w3.org/2000/svg" xmlns:xlink="http://www.w3.org/1999/xlink" x="0px" y="0px"
	 width="612px" height="604px" viewBox="0 0 612 604" enable-background="new 0 0 612 604" xml:space="preserve">
<path fill="#B2AEA1" d="M309.403,498.203c88.452,0,56.914-55.996,63.74-72.097c-0.101-12.023-0.204-23.589,0.204-30.621
	c5.605,1.579,18.827,8.279,46.137,34.824c42.163,42.545,52.938,67.894,87,67.894h62.696c19.87,0,30.215-8.229,35.386-15.133
	c4.993-6.673,9.884-18.393,4.535-36.632c-13.987-43.921-95.561-119.763-100.631-127.763c0.765-1.478,1.987-3.439,2.625-4.459h-0.051
	c16.101-21.272,77.548-113.341,86.592-150.179c0.025-0.051,0.051-0.127,0.051-0.204c4.892-16.814,0.407-27.717-4.229-33.882
	c-6.98-9.222-18.089-13.885-33.094-13.885h-62.695c-20.992,0-36.915,10.573-44.965,29.858
	c-13.477,34.265-51.334,104.73-79.714,129.672c-0.866-35.335-0.28-62.314,0.179-82.363c0.916-39.105,3.871-77.167-36.711-77.167
	h-98.541c-25.424,0-49.754,27.769-23.412,60.735c23.031,28.889,8.28,44.989,13.248,125.137
	c-19.361-20.763-53.804-76.835-78.159-148.499c-6.828-19.387-17.171-37.347-46.29-37.347H40.608C15.184,116.093,0,129.951,0,153.159
	C0,205.283,115.38,498.203,309.403,498.203L309.403,498.203z M103.305,154.306c5.527,0,6.088,0,10.19,11.642
	c24.94,73.448,80.886,182.127,121.749,182.127c30.697,0,30.697-31.462,30.697-43.309l-0.025-94.312
	c-1.681-31.207-13.042-46.748-20.507-56.174l89.368,0.103c0.052,0.433-0.51,104.322,0.256,129.494
	c0,35.742,28.379,56.224,72.682,11.387c46.747-52.76,79.076-131.633,80.376-134.843c1.911-4.585,3.567-6.14,9.579-6.14h62.695h0.255
	c-0.025,0.077-0.025,0.153-0.051,0.23c-5.732,26.75-62.314,111.992-81.243,138.46c-0.305,0.408-0.585,0.841-0.865,1.274
	c-8.331,13.604-15.107,28.635,1.146,49.779h0.026c1.478,1.784,5.323,5.961,10.928,11.77c17.426,17.986,77.192,79.483,82.49,103.941
	c-3.515,0.56-7.336,0.153-66.567,0.279c-12.61,0-22.47-18.85-60.098-56.81c-33.831-32.914-55.792-46.366-75.79-46.366
	c-38.824,0-35.998,31.514-35.641,69.625c0.127,41.322-0.127,28.252,0.152,30.853c-2.267,0.891-8.764,2.673-25.705,2.673
	c-161.643,0-266.909-256.565-270.96-305.606C39.844,154.255,59.13,154.332,103.305,154.306z"/>
</svg>
